<svg version="1.1" id="Calque_1" xmlns="http://www.w3.org/2000/svg" x="0" y="0" viewBox="0 0 126 27.5" xml:space="preserve"><style>.st0{fill:#48aac1}.st1{fill:#47bfae}.st3{fill:#46789b}</style><path class="st0" d="M12.5 26.9V26c0-.3 0-.7.1-1.1-.6.7-1.3 1.3-2.1 1.7-.9.4-1.9.6-3 .6-1.7 0-2.9-.4-3.6-1.3-.7-.8-1.1-2-1.1-3.3v-6.3c-.3 0-.8-.1-1.4-.2C.8 16 .3 16 0 16v-3.5c.9-.1 2.1-.2 3.5-.2s2.8-.1 4-.1h1.1v9.2c0 .8.3 1.2.9 1.2.6 0 1.2-.3 1.7-1s.8-1.5.8-2.3v-7.1h5.9v10.6c.4.1.8.1 1.4.2.6.1 1 .1 1.4.1v3.5c-1.3.1-2.8.2-4.5.2-1.8.1-3 .1-3.7.1z"/><path class="st1" d="M31.8 26.9l-3.2-5.2c-.2-.3-.4-.7-.6-1.2-.2-.5-.4-.9-.5-1.2v7.5h-5.7V12.1h8l3 4.9c.3.5.5.9.7 1.3l.7 1.4v-.5-.8-6.3h5.7v14.8h-8.1z"/><path d="M71 26.9v-9c0-.9-.3-1.4-.9-1.4-.6 0-1.2.3-1.7 1s-.8 1.5-.8 2.4v7h-5.8v-9c0-.9-.3-1.4-.9-1.4-.6 0-1.2.3-1.7 1s-.8 1.5-.8 2.4v7h-5.9V16.4c-.4-.1-.8-.1-1.4-.2-.6-.1-1-.1-1.4-.1v-3.5c.9-.1 2-.2 3.4-.2s2.7-.1 3.9-.1h1c0 .4 0 .8-.1 1.2 0 .4-.1.6-.1.8 1.1-1.5 2.8-2.3 5-2.3 1.1 0 2 .2 2.7.5.7.4 1.3 1 1.6 1.8.5-.7 1.1-1.3 1.9-1.7 1-.4 2-.6 3-.6 3.2 0 4.9 1.7 4.9 5v9.9H71z" fill="#666766"/><path class="st0" d="M87.2 26.9V26c0-.3 0-.6.1-1-.4.7-1 1.2-1.8 1.6-.8.4-1.8.6-2.8.6-1.5 0-2.7-.4-3.5-1.1-.8-.8-1.2-1.8-1.2-3 0-1.9.8-3.3 2.5-4.2 1.7-.9 3.7-1.4 6.2-1.4v-.3c0-.4-.2-.7-.6-.9-.4-.2-1-.3-2-.3-.7 0-1.5.1-2.3.3-.8.2-1.6.4-2.3.7l-.5-4.3c.9-.2 1.9-.4 2.9-.6 1-.1 2-.2 3-.2 2.9 0 4.9.4 6 1.3 1.1.9 1.7 2.2 1.7 4.1V23c.4.1.8.1 1.4.2.6.1 1 .1 1.4.1v3.4c-1.3.1-2.8.2-4.5.2h-3.7zm-.6-6.1c-1.2 0-2.1.1-2.5.4-.5.2-.7.6-.7 1.1 0 .6.4.9 1.2.9.6 0 1.1-.2 1.4-.6.4-.4.6-.8.6-1.4v-.4z"/><path class="st1" d="M106.5 26.9l-3.2-5.1c-.2-.3-.4-.7-.6-1.2-.2-.5-.4-.9-.5-1.2v7.5h-5.7V12.2h8l3 4.9c.3.5.5.9.7 1.2l.7 1.4v-.5-.8V12.3h5.7V27h-8.1z"/><g><path class="st3" d="M118.2 8.7l6.4.6-.8 18.2-7.9-.7 2.3-18.1zm4-8.4c1.2.1 2.1.5 2.8 1.3.7.8 1 1.7.9 2.9-.1 1.1-.6 1.9-1.4 2.6-.8.7-1.9 1-3.1.9-1.2-.1-2.2-.6-2.9-1.4-.7-.8-1-1.8-.9-2.9.1-1.1.6-1.9 1.4-2.6 1-.6 2-.9 3.2-.8z"/></g><g><path class="st3" d="M41.4 8.9l6.4-.4 2 18.1-7.9.5-.5-18.2zM44.1 0c1.2-.1 2.2.2 3 .9.8.6 1.3 1.6 1.4 2.7.1 1.1-.2 2-.9 2.8-.7.8-1.7 1.3-2.9 1.4-1.2.1-2.2-.2-3-.9s-1.3-1.6-1.3-2.7c-.1-1.1.3-2 1-2.8C42 .5 42.9.1 44.1 0z"/></g></svg>